<?xml version="1.0" standalone="no"?>
<!DOCTYPE svg PUBLIC "-//W3C//DTD SVG 20010904//EN"
 "http://www.w3.org/TR/2001/REC-SVG-20010904/DTD/svg10.dtd">
<svg version="1.0" xmlns="http://www.w3.org/2000/svg"
 width="273.000000pt" height="88.000000pt" viewBox="0 0 273.000000 88.000000"
 preserveAspectRatio="xMidYMid meet">

<g transform="translate(0.000000,88.000000) scale(0.100000,-0.100000)"
fill="#000000" stroke="none">
<path d="M1962 808 c-7 -7 -12 -26 -12 -42 1 -39 94 -374 108 -388 6 -6 23
-11 37 -11 22 0 57 30 166 139 146 145 161 172 122 206 -19 15 -353 109 -388
108 -12 0 -26 -5 -33 -12z"/>
<path d="M2293 458 c-129 -129 -163 -168 -163 -189 0 -15 7 -32 15 -39 17 -14
387 -109 426 -110 29 0 59 27 59 54 0 14 -52 231 -91 378 -11 44 -33 68 -62
68 -13 0 -76 -55 -184 -162z"/>
<path d="M762 427 c-12 -68 -22 -129 -22 -135 0 -7 13 -12 30 -12 24 0 30 4
31 23 0 12 4 31 8 42 7 18 11 15 30 -22 20 -40 24 -43 61 -43 l41 0 -36 52
-35 53 52 52 52 53 -34 0 c-27 0 -44 -9 -78 -42 -40 -39 -44 -41 -39 -18 3 14
9 46 12 73 l7 47 -29 0 -30 0 -21 -123z"/>
<path d="M1215 528 c-2 -13 -12 -63 -21 -113 -8 -49 -18 -100 -21 -112 -4 -20
-1 -23 26 -23 34 0 32 -6 56 135 9 50 18 100 21 113 4 19 0 22 -26 22 -23 0
-31 -5 -35 -22z"/>
<path d="M80 515 c0 -21 5 -25 30 -25 36 0 36 -5 15 -117 -19 -99 -20 -93 15
-93 25 0 30 4 35 33 3 17 11 64 18 102 l12 70 38 3 c32 3 37 7 37 28 0 24 -1
24 -100 24 l-100 0 0 -25z"/>
<path d="M996 453 c-33 -183 -33 -173 1 -173 29 0 31 3 39 53 l9 52 43 3 c34
3 42 7 42 23 0 15 -7 19 -35 19 -32 0 -35 2 -35 30 0 30 1 30 55 30 30 0 55 4
55 9 0 5 3 16 6 25 5 14 -5 16 -79 16 l-85 0 -16 -87z"/>
<path d="M338 474 c-56 -30 -79 -133 -38 -174 24 -24 67 -26 98 -4 20 14 22
14 22 0 0 -11 9 -16 29 -16 28 0 29 3 40 63 27 158 27 147 -8 147 -21 0 -31
-5 -31 -16 0 -14 -2 -14 -22 0 -28 20 -55 20 -90 0z m87 -50 c25 -26 -7 -94
-45 -94 -41 0 -54 56 -20 90 24 24 43 25 65 4z"/>
<path d="M564 467 c-40 -35 -28 -72 31 -97 25 -11 45 -24 45 -30 0 -19 -30
-23 -49 -6 -25 23 -61 21 -61 -3 0 -44 84 -66 140 -38 19 10 25 20 25 47 0 32
-4 37 -47 57 -27 13 -48 27 -48 32 0 17 34 22 46 7 14 -20 64 -21 64 -2 0 23
-50 56 -86 56 -20 0 -43 -9 -60 -23z"/>
<path d="M1355 476 c-41 -18 -67 -60 -69 -109 -1 -31 5 -44 27 -63 71 -61 187
-2 187 95 0 43 -9 60 -41 76 -34 18 -64 18 -104 1z m78 -57 c24 -39 -20 -98
-63 -84 -27 9 -26 59 1 86 23 23 47 22 62 -2z"/>
<path d="M1539 486 c-2 -3 0 -50 5 -106 l9 -101 35 3 c33 3 37 7 62 66 l27 64
6 -39 c4 -21 7 -50 7 -65 0 -25 4 -28 34 -28 32 0 34 2 77 96 24 53 46 101 47
105 2 5 -9 9 -25 9 -27 0 -31 -5 -52 -65 -13 -36 -27 -68 -32 -71 -5 -3 -9 27
-9 65 l0 71 -34 0 c-32 0 -35 -3 -64 -72 l-31 -73 -1 41 c0 75 -10 104 -35
104 -12 0 -24 -2 -26 -4z"/>
</g>
</svg>
